<svg xmlns="http://www.w3.org/2000/svg" version="1.1" xmlns:xlink="http://www.w3.org/1999/xlink" xmlns:svgjs="http://svgjs.dev/svgjs" width="1440" height="560" preserveAspectRatio="none" viewBox="0 0 1440 560"><g mask="url(&quot;#SvgjsMask1643&quot;)" fill="none"><rect width="1440" height="560" x="0" y="0" fill="url(&quot;#SvgjsLinearGradient1644&quot;)"></rect><path d="M1440 0L808.02 0L1440 164.18z" fill="rgba(255, 255, 255, .1)"></path><path d="M808.02 0L1440 164.18L1440 221.75L405.96999999999997 0z" fill="rgba(255, 255, 255, .075)"></path><path d="M405.97 0L1440 221.75L1440 322.8L175.77000000000004 0z" fill="rgba(255, 255, 255, .05)"></path><path d="M175.76999999999998 0L1440 322.8L1440 373.03000000000003L163.98999999999998 0z" fill="rgba(255, 255, 255, .025)"></path><path d="M0 560L459.89 560L0 461.73z" fill="rgba(0, 0, 0, .1)"></path><path d="M0 461.73L459.89 560L512.53 560L0 379.37z" fill="rgba(0, 0, 0, .075)"></path><path d="M0 379.37L512.53 560L514.37 560L0 317.3z" fill="rgba(0, 0, 0, .05)"></path><path d="M0 317.3L514.37 560L672.37 560L0 206.28000000000003z" fill="rgba(0, 0, 0, .025)"></path></g><defs><mask id="SvgjsMask1643"><rect width="1440" height="560" fill="#ffffff"></rect></mask><linearGradient x1="15.28%" y1="-39.29%" x2="84.72%" y2="139.29%" gradientUnits="userSpaceOnUse" id="SvgjsLinearGradient1644"><stop stop-color="#0e2a47" offset="0"></stop><stop stop-color="rgba(0, 0, 0, 1)" offset="1"></stop></linearGradient></defs></svg>